<!DOCTYPE svg PUBLIC "-//W3C//DTD SVG 1.1//EN" "http://www.w3.org/Graphics/SVG/1.1/DTD/svg11.dtd">

<!-- Uploaded to: SVG Repo, www.svgrepo.com, Transformed by: SVG Repo Mixer Tools -->
<svg fill="#ffffff" width="800px" height="800px" viewBox="-3.6 -3.6 31.20 31.20" xmlns="http://www.w3.org/2000/svg">

<g id="SVGRepo_bgCarrier" stroke-width="0">

<rect x="-3.6" y="-3.6" width="31.20" height="31.20" rx="3.12" fill="#0fa3f7" strokewidth="0"/>

</g>

<g id="SVGRepo_tracerCarrier" stroke-linecap="round" stroke-linejoin="round"/>

<g id="SVGRepo_iconCarrier"> <path d="M4,4h6v6H4V4M20,4v6H14V4h6M14,15h2V13H14V11h2v2h2V11h2v2H18v2h2v3H18v2H16V18H13v2H11V16h3V15m2,0v3h2V15H16M4,20V14h6v6H4M6,6V8H8V6H6M16,6V8h2V6H16M6,16v2H8V16H6M4,11H6v2H4V11m5,0h4v4H11V13H9V11m2-5h2v4H11V6M2,2V6H0V2A2,2,0,0,1,2,0H6V2H2M22,0a2,2,0,0,1,2,2V6H22V2H18V0h4M2,18v4H6v2H2a2,2,0,0,1-2-2V18H2m20,4V18h2v4a2,2,0,0,1-2,2H18V22Z"/> </g>

</svg>